<?xml version="1.0" encoding="iso-8859-1"?>
<!-- Generator: Adobe Illustrator 19.0.0, SVG Export Plug-In . SVG Version: 6.00 Build 0)  -->
<svg version="1.1" id="Layer_1" xmlns="http://www.w3.org/2000/svg" xmlns:xlink="http://www.w3.org/1999/xlink" x="0px" y="0px"
	 viewBox="0 0 512 512" style="enable-background:new 0 0 512 512;" xml:space="preserve">
<circle style="fill:#FF2746;" cx="256" cy="256" r="256"/>
<path style="fill:#940030;" d="M505.446,313.811L358.555,166.921L131,393.04l118.882,118.882c2.034,0.048,4.072,0.078,6.118,0.078
	C377.504,512,479.237,427.351,505.446,313.811z"/>
<polygon style="fill:#FFFFFF;" points="300.23,108.596 131,108.596 131,393.04 358.555,393.04 358.555,166.921 "/>
<polygon style="fill:#DBDBDB;" points="358.555,166.921 300.23,108.596 238.187,108.596 238.187,393.04 358.555,393.04 "/>
<polygon style="fill:#C4C4C4;" points="300.23,166.921 358.555,166.921 300.23,108.596 "/>
<path style="fill:#121149;" d="M206.734,421.669L206.734,421.669c7.825,7.825,20.511,7.825,28.336,0l83.877-83.877
	c7.825-7.825,7.825-20.511,0-28.336l0,0c-7.825-7.825-20.511-7.825-28.336,0l-83.877,83.877
	C198.909,401.158,198.909,413.844,206.734,421.669z"/>
<path style="fill:#0A0A33;" d="M318.473,309.029L206.305,421.197c0.147,0.155,0.276,0.321,0.428,0.474
	c7.825,7.825,20.511,7.825,28.336,0l83.877-83.877c7.825-7.825,7.825-20.511,0-28.336
	C318.795,309.305,318.63,309.176,318.473,309.029z"/>
<circle style="fill:#273B7A;" cx="346.712" cy="281.686" r="82.553"/>
<path style="fill:#121149;" d="M405.09,223.315c-0.152-0.152-0.31-0.29-0.462-0.44L287.904,339.599
	c0.15,0.152,0.288,0.31,0.44,0.462c32.239,32.239,84.508,32.239,116.746,0S437.329,255.552,405.09,223.315z"/>
<circle style="fill:#71E2EF;" cx="346.712" cy="281.686" r="61.714"/>
<path style="fill:#38C6D9;" d="M389.892,237.609l-87.254,87.254c0.15,0.152,0.288,0.31,0.44,0.462c24.1,24.1,63.176,24.1,87.276,0
	c24.1-24.1,24.1-63.176,0-87.276C390.204,237.897,390.046,237.759,389.892,237.609z"/>
<g>
</g>
<g>
</g>
<g>
</g>
<g>
</g>
<g>
</g>
<g>
</g>
<g>
</g>
<g>
</g>
<g>
</g>
<g>
</g>
<g>
</g>
<g>
</g>
<g>
</g>
<g>
</g>
<g>
</g>
</svg>
