<?xml version="1.0" standalone="no"?>
<!DOCTYPE svg PUBLIC "-//W3C//DTD SVG 20010904//EN"
 "http://www.w3.org/TR/2001/REC-SVG-20010904/DTD/svg10.dtd">
<svg version="1.0" xmlns="http://www.w3.org/2000/svg"
 width="1200.000000pt" height="1200.000000pt" viewBox="0 0 1200.000000 1200.000000"
 preserveAspectRatio="xMidYMid meet">
<metadata>
Created by potrace 1.11, written by Peter Selinger 2001-2013
</metadata>
<g transform="translate(0.000000,1200.000000) scale(0.100000,-0.100000)"
fill="#000000" stroke="none">
<path d="M8939 11956 c-3 -3 -18 -7 -34 -10 -109 -19 -373 -100 -510 -157
-292 -119 -517 -248 -714 -408 -334 -269 -538 -574 -668 -996 -38 -125 -78
-310 -89 -415 -3 -36 -8 -68 -10 -71 -16 -27 -23 -498 -10 -654 9 -106 12
-116 39 -110 184 40 370 97 526 160 106 42 233 98 261 115 8 5 40 22 70 38 96
50 241 143 345 221 89 68 273 240 332 313 138 169 246 357 326 568 35 92 90
274 102 335 27 148 45 259 50 305 15 160 17 208 18 355 0 154 -7 295 -19 373
-6 40 -8 44 -15 38z"/>
<path d="M5554 10793 c29 -204 120 -483 219 -678 181 -355 481 -667 850 -886
43 -26 47 -27 47 -9 0 40 -60 281 -100 400 -35 107 -169 405 -189 420 -3 3
-12 16 -19 30 -57 111 -260 347 -412 481 -114 99 -369 279 -396 279 -3 0 -3
-17 0 -37z"/>
<path d="M8215 9300 c-27 -4 -68 -10 -90 -13 -221 -32 -512 -131 -710 -239
-38 -22 -85 -46 -102 -55 -18 -9 -33 -20 -33 -25 0 -8 177 -64 290 -92 245
-60 559 -77 805 -42 193 28 464 112 644 200 135 66 223 118 214 126 -18 18
-272 91 -368 106 -22 3 -43 8 -46 9 -3 2 -31 7 -63 10 -31 4 -67 9 -79 12 -36
8 -408 11 -462 3z"/>
<path d="M5657 9015 c-1 -2 -56 -5 -122 -9 -989 -52 -1739 -400 -2097 -976
-114 -182 -208 -436 -234 -626 -3 -27 -7 -51 -9 -54 -2 -3 -7 -41 -11 -85 -15
-146 -8 -455 11 -557 3 -12 7 -40 10 -63 10 -65 33 -153 73 -275 50 -154 160
-353 271 -490 111 -137 252 -264 408 -367 117 -77 343 -190 475 -238 59 -22
106 -40 105 -41 -1 -1 -83 -43 -182 -93 -99 -50 -207 -106 -240 -125 -33 -18
-82 -46 -110 -62 -90 -50 -307 -195 -410 -272 -125 -96 -312 -283 -387 -387
-181 -255 -258 -511 -252 -834 3 -167 19 -269 65 -402 119 -344 435 -591 881
-688 172 -37 258 -45 520 -45 120 -1 218 -2 218 -3 0 -1 -38 -25 -85 -52 -172
-102 -295 -152 -745 -301 -179 -59 -363 -122 -410 -139 -190 -71 -377 -181
-479 -282 -170 -168 -216 -451 -110 -679 116 -250 418 -459 874 -603 77 -24
253 -71 305 -81 14 -2 70 -14 125 -24 107 -22 342 -57 440 -67 33 -3 78 -8
100 -10 161 -17 171 -18 460 -31 271 -12 778 -6 915 11 32 4 85 10 185 20 43
5 241 34 278 40 12 3 35 7 50 11 16 3 38 7 50 9 85 12 423 97 487 122 8 3 20
7 25 9 29 7 125 42 245 89 299 118 582 278 816 461 178 139 336 295 465 459
209 267 357 561 434 865 23 92 29 122 41 205 3 22 8 47 11 55 12 36 11 369 -3
464 -62 432 -270 726 -645 913 -80 39 -288 115 -351 127 -13 2 -57 11 -98 19
-77 16 -127 24 -215 33 -27 2 -66 7 -85 11 -19 3 -762 7 -1650 8 -1497 2
-1620 4 -1690 20 -205 48 -307 166 -315 363 -2 44 1 99 7 123 6 24 11 50 11
56 1 26 74 146 122 202 28 32 83 84 123 117 40 32 79 64 85 69 63 53 364 238
375 231 5 -3 19 -7 33 -10 13 -3 78 -16 145 -30 66 -14 145 -28 175 -31 30 -4
60 -8 67 -10 7 -3 47 -7 90 -11 42 -3 88 -8 102 -10 129 -21 773 -21 900 0 14
3 57 7 95 11 464 42 960 194 1296 398 243 148 470 373 601 597 94 159 180 381
204 528 2 15 9 50 14 77 24 126 33 409 18 575 -27 291 -123 578 -267 795 -25
38 -48 75 -50 80 -2 6 -7 12 -10 15 -3 3 -31 34 -61 70 -168 198 -372 354
-630 481 -108 52 -266 119 -330 137 -19 6 -66 20 -105 32 -120 36 -310 79
-425 95 -25 3 -52 8 -60 10 -8 2 -42 7 -75 10 -33 3 -71 7 -85 10 -14 3 -55 7
-92 10 -38 3 -98 8 -135 11 -64 5 -540 13 -546 9z m349 -240 c128 -24 246 -90
332 -184 72 -78 119 -158 187 -316 12 -28 52 -156 60 -194 30 -133 44 -206 51
-251 4 -30 8 -62 9 -70 3 -20 16 -144 21 -195 24 -260 23 -892 -1 -1089 -2
-17 -7 -56 -10 -86 -6 -57 -8 -74 -19 -150 -13 -82 -17 -104 -37 -195 -41
-189 -119 -386 -195 -492 -88 -124 -192 -202 -329 -249 -71 -23 -96 -26 -215
-27 -157 0 -238 18 -342 76 -223 125 -373 411 -443 847 -3 19 -7 46 -10 60 -3
14 -7 50 -10 80 -3 30 -8 69 -10 85 -4 32 -14 174 -20 290 -6 93 -6 577 -1
640 3 28 7 93 11 145 19 289 66 551 130 731 134 376 350 556 672 558 50 1 126
-6 169 -14z m1179 -6459 c132 -11 248 -37 325 -74 114 -56 195 -163 218 -292
19 -104 10 -307 -22 -470 -4 -23 -26 -100 -42 -150 -28 -86 -134 -285 -194
-365 -156 -206 -359 -369 -612 -490 -125 -60 -312 -125 -428 -150 -148 -32
-165 -35 -285 -50 -124 -15 -403 -22 -465 -11 -14 2 -54 7 -90 10 -186 17
-404 78 -564 158 -273 135 -451 337 -530 600 -33 106 -41 179 -40 328 4 297
148 657 359 895 l62 70 1114 -1 c613 -1 1150 -4 1194 -8z"/>
</g>
</svg>
